# xmcd
#
# Track frame offsets: 
#        183
#        16153
#        32958
#        40175
#        63125
#        75495
#        108345
#        135000
#
# Disc length: 1935 seconds
#
# Revision: 3
# Processed by: cddbd v1.5.2PL0 Copyright (c) Steve Scherf et al.
# Submitted via: ExactAudioCopy v1.0b2
#
DISCID=51078d08
DTITLE=Roy Buchanan - Roy Buchanan
DYEAR=1972
DGENRE=Blues
TTITLE0=Sweet Dreams
TTITLE1=I Am a Lonesome Fugitive
TTITLE2=Cajun
TTITLE3=John's Blues
TTITLE4=Haunted House
TTITLE5=Pete's Blues
TTITLE6=The Messiah Will Come Again
TTITLE7=Hey, Good Lookin'
EXTD=YEAR: 1972 ID3G: 0
EXTT0=
EXTT1=
EXTT2=
EXTT3=
EXTT4=
EXTT5=
EXTT6=
EXTT7=
PLAYORDER=
